<svg id="Calque_1" data-name="Calque 1" xmlns="http://www.w3.org/2000/svg" viewBox="0 0 3704 3665"><defs><style>.cls-1{fill-rule:evenodd;}</style></defs><title>Logo Trail 4</title><path class="cls-1" d="M3701.9,1010.06c-32.7,493.1-443,882.94-944.4,882.94a952.58,952.58,0,0,1-164.84-14.3,2.38,2.38,0,0,0-1.57.25l-900,492.87a2.41,2.41,0,0,0-.28,4l407.5,305.4c165.41,124,115.55,384-84,438l-2000,541a2.41,2.41,0,0,1-2-4.34l1335.83-887.17a2.42,2.42,0,0,0,.11-3.94L1032.8,2528.34c-133.62-100.14-153.18-293.09-42.37-418l843.57-951a2.38,2.38,0,0,0,.55-2.12A949,949,0,0,1,1811,946.5c0-501.38,389.84-911.71,882.94-944.4C3264.55-35.73,3739.73,439.45,3701.9,1010.06Zm-304.17-154.9c58.67,428.52-303.06,790.25-731.58,731.57-284.93-39-509.87-264-548.88-548.9-58.67-428.52,303.05-790.23,731.56-731.56C3133.77,345.28,3358.72,570.22,3397.73,855.16Z"/></svg>