<svg width="512" height="512" viewBox="0 0 512 512" fill="none" xmlns="http://www.w3.org/2000/svg">
<path fill-rule="evenodd" clip-rule="evenodd" d="M479.983 148.477C479.983 211.702 428.73 262.955 365.506 262.955C358.67 262.955 344.5 262.955 336 259L248.5 322L284 345C304.005 359.993 293.632 393.972 269.5 400.5L25 469.5L195 372.5L158 347.5C141.839 335.388 134.097 309.109 147.5 294L254.5 179C251.028 170 251.028 157.291 251.028 148.477C251.028 85.2533 302.282 34 365.506 34C428.73 34 479.983 85.2533 479.983 148.477ZM443.699 148.477C443.699 191.662 408.691 226.67 365.506 226.67C322.321 226.67 287.313 191.662 287.313 148.477C287.313 105.293 322.321 70.2845 365.506 70.2845C408.691 70.2845 443.699 105.293 443.699 148.477Z"/>
</svg>
